<svg width="135" height="44" viewBox="0 0 135 44" fill="none" xmlns="http://www.w3.org/2000/svg">
<g filter="url(#filter0_d_1_16)">
<path d="M10.952 29.722C10.952 30.1327 11.0267 30.52 11.176 30.884C11.3347 31.248 11.5493 31.5653 11.82 31.836C12.0907 32.1067 12.4033 32.3213 12.758 32.48C13.122 32.6387 13.514 32.718 13.934 32.718C14.3353 32.718 14.7133 32.6433 15.068 32.494C15.432 32.3353 15.7493 32.1253 16.02 31.864C16.2907 31.5933 16.5053 31.276 16.664 30.912C16.8227 30.548 16.902 30.1607 16.902 29.75C16.902 29.3393 16.8227 28.9567 16.664 28.602C16.5053 28.238 16.286 27.9253 16.006 27.664C15.7353 27.3933 15.418 27.1833 15.054 27.034C14.6993 26.8753 14.3213 26.796 13.92 26.796C13.528 26.796 13.15 26.8753 12.786 27.034C12.4313 27.1833 12.114 27.3933 11.834 27.664C11.5633 27.9253 11.3487 28.2333 11.19 28.588C11.0313 28.9427 10.952 29.3207 10.952 29.722ZM6.85 35H4.106V24.444H6.85V28.672H8.166C8.278 28.0187 8.50667 27.4167 8.852 26.866C9.19733 26.306 9.62667 25.8253 10.14 25.424C10.6533 25.0227 11.232 24.71 11.876 24.486C12.52 24.2527 13.2013 24.136 13.92 24.136C14.76 24.136 15.5347 24.2807 16.244 24.57C16.9627 24.8593 17.5833 25.2607 18.106 25.774C18.6287 26.278 19.0347 26.8707 19.324 27.552C19.6227 28.2333 19.772 28.966 19.772 29.75C19.772 30.534 19.6227 31.2713 19.324 31.962C19.0347 32.6433 18.6287 33.236 18.106 33.74C17.5833 34.244 16.958 34.6453 16.23 34.944C15.5113 35.2333 14.7273 35.378 13.878 35.378C13.1873 35.378 12.5293 35.2707 11.904 35.056C11.2787 34.8507 10.714 34.5567 10.21 34.174C9.71533 33.782 9.29533 33.32 8.95 32.788C8.60467 32.2467 8.362 31.6493 8.222 30.996H6.85V35ZM20.9223 32.914C20.9596 32.9233 21.0016 32.928 21.0483 32.928C21.5803 32.928 21.8463 32.522 21.8463 31.71V24.444H30.4843V35H27.7403V26.768H24.5763V31.752C24.5763 32.2747 24.497 32.7507 24.3383 33.18C24.1796 33.6093 23.951 33.9827 23.6523 34.3C23.3536 34.6173 22.9896 34.86 22.5603 35.028C22.1403 35.2053 21.6643 35.294 21.1323 35.294H20.9223V32.914ZM35.4379 24.444V30.912L40.4919 24.444H43.2359V35H40.4919V28.546L35.4379 35H32.6939V24.444H35.4379ZM48.1938 24.444V30.912L53.2478 24.444H55.9918V35H53.2478V28.546L48.1938 35H45.4498V24.444H48.1938ZM65.7074 32.872H66.3094C67.0001 32.872 67.4948 32.7833 67.7934 32.606C68.0921 32.4287 68.2414 32.144 68.2414 31.752C68.2414 31.36 68.0921 31.0753 67.7934 30.898C67.4948 30.7207 67.0001 30.632 66.3094 30.632H65.7074V32.872ZM65.7074 28.588H66.2114C67.0701 28.588 67.4994 28.2473 67.4994 27.566C67.4994 26.8847 67.0701 26.544 66.2114 26.544H65.7074V28.588ZM62.9634 24.444H67.0514C68.0221 24.444 68.7594 24.6773 69.2634 25.144C69.7674 25.6107 70.0194 26.2827 70.0194 27.16C70.0194 27.692 69.9214 28.1353 69.7254 28.49C69.5388 28.8353 69.2494 29.1293 68.8574 29.372C69.2494 29.4467 69.5808 29.5633 69.8514 29.722C70.1314 29.8713 70.3554 30.058 70.5234 30.282C70.7008 30.506 70.8268 30.758 70.9014 31.038C70.9761 31.318 71.0134 31.6167 71.0134 31.934C71.0134 32.4287 70.9248 32.8673 70.7474 33.25C70.5794 33.6327 70.3368 33.9547 70.0194 34.216C69.7114 34.4773 69.3334 34.6733 68.8854 34.804C68.4374 34.9347 67.9334 35 67.3734 35H62.9634V24.444ZM74.9688 29.722C74.9688 30.142 75.0481 30.5293 75.2068 30.884C75.3654 31.2387 75.5801 31.5467 75.8508 31.808C76.1214 32.0693 76.4341 32.2747 76.7888 32.424C77.1528 32.564 77.5354 32.634 77.9368 32.634C78.3381 32.634 78.7161 32.564 79.0708 32.424C79.4348 32.2747 79.7521 32.0693 80.0228 31.808C80.3028 31.5467 80.5221 31.2387 80.6808 30.884C80.8394 30.5293 80.9188 30.142 80.9188 29.722C80.9188 29.302 80.8394 28.9147 80.6808 28.56C80.5221 28.2053 80.3028 27.8973 80.0228 27.636C79.7521 27.3747 79.4348 27.174 79.0708 27.034C78.7161 26.8847 78.3381 26.81 77.9368 26.81C77.5354 26.81 77.1528 26.8847 76.7888 27.034C76.4341 27.174 76.1214 27.3747 75.8508 27.636C75.5801 27.8973 75.3654 28.2053 75.2068 28.56C75.0481 28.9147 74.9688 29.302 74.9688 29.722ZM72.0988 29.722C72.0988 28.938 72.2434 28.21 72.5328 27.538C72.8221 26.8567 73.2234 26.264 73.7368 25.76C74.2501 25.256 74.8614 24.864 75.5708 24.584C76.2894 24.2947 77.0781 24.15 77.9368 24.15C78.7861 24.15 79.5701 24.2947 80.2888 24.584C81.0074 24.864 81.6234 25.256 82.1368 25.76C82.6594 26.264 83.0654 26.8567 83.3548 27.538C83.6441 28.21 83.7888 28.938 83.7888 29.722C83.7888 30.506 83.6441 31.2387 83.3548 31.92C83.0654 32.592 82.6594 33.18 82.1368 33.684C81.6234 34.188 81.0074 34.5847 80.2888 34.874C79.5701 35.154 78.7861 35.294 77.9368 35.294C77.0781 35.294 76.2894 35.154 75.5708 34.874C74.8614 34.5847 74.2501 34.188 73.7368 33.684C73.2234 33.18 72.8221 32.592 72.5328 31.92C72.2434 31.2387 72.0988 30.506 72.0988 29.722ZM88.266 29.288H89.176C90.184 29.288 90.688 28.8493 90.688 27.972C90.688 27.0947 90.184 26.656 89.176 26.656H88.266V29.288ZM88.266 35H85.522V24.444H89.89C91.0753 24.444 91.9807 24.752 92.606 25.368C93.2407 25.984 93.558 26.852 93.558 27.972C93.558 29.092 93.2407 29.96 92.606 30.576C91.9807 31.192 91.0753 31.5 89.89 31.5H88.266V35ZM94.5343 35L96.3263 24.444H99.0423L101.156 30.072L103.256 24.444H105.972L107.764 35H105.034L104.124 28.924L101.632 35H100.54L98.1743 28.924L97.2643 35H94.5343ZM115.242 31.08L114.01 27.566L112.778 31.08H115.242ZM115.97 33.166H112.05L111.42 35H108.494L112.512 24.444H115.508L119.526 35H116.6L115.97 33.166ZM123.485 28.518H127.447V24.444H130.191V35H127.447V30.646H123.485V35H120.741V24.444H123.485V28.518Z" fill="white"/>
<path d="M6.85 4.444V10.912L11.904 4.444H14.648V15H11.904V8.546L6.85 15H4.106V4.444H6.85ZM19.6059 8.518H23.5679V4.444H26.3119V15H23.5679V10.646H19.6059V15H16.8619V4.444H19.6059V8.518ZM32.528 6.768V15H29.784V6.768H27.53V4.444H34.782V6.768H32.528ZM42.0085 6.768H38.7465V8.532H41.8265V10.856H38.7465V12.676H42.0085V15H36.0025V4.444H42.0085V6.768ZM46.7309 8.518H50.6929V4.444H53.4369V15H50.6929V10.646H46.7309V15H43.9869V4.444H46.7309V8.518ZM63.251 7.972C62.6163 7.19733 61.8323 6.81 60.899 6.81C60.4883 6.81 60.1056 6.88467 59.751 7.034C59.4056 7.18333 59.107 7.38867 58.855 7.65C58.603 7.902 58.4023 8.20533 58.253 8.56C58.113 8.91467 58.043 9.29733 58.043 9.708C58.043 10.128 58.113 10.5153 58.253 10.87C58.4023 11.2247 58.603 11.5327 58.855 11.794C59.1163 12.0553 59.4196 12.2607 59.765 12.41C60.1103 12.5593 60.4836 12.634 60.885 12.634C61.7623 12.634 62.551 12.2607 63.251 11.514V14.762L62.971 14.86C62.551 15.0093 62.159 15.1167 61.795 15.182C61.431 15.2567 61.0716 15.294 60.717 15.294C59.989 15.294 59.289 15.1587 58.617 14.888C57.9543 14.608 57.3663 14.2207 56.853 13.726C56.349 13.222 55.943 12.6293 55.635 11.948C55.327 11.2573 55.173 10.506 55.173 9.694C55.173 8.882 55.3223 8.14 55.621 7.468C55.929 6.78667 56.335 6.20333 56.839 5.718C57.3523 5.22333 57.945 4.84067 58.617 4.57C59.289 4.29 59.9936 4.15 60.731 4.15C61.151 4.15 61.5616 4.19667 61.963 4.29C62.3736 4.374 62.803 4.50933 63.251 4.696V7.972ZM67.7309 4.444V10.912L72.7849 4.444H75.5289V15H72.7849V8.546L67.7309 15H64.9869V4.444H67.7309ZM80.4867 12.872H81.0887C81.7794 12.872 82.2741 12.7833 82.5727 12.606C82.8714 12.4287 83.0207 12.144 83.0207 11.752C83.0207 11.36 82.8714 11.0753 82.5727 10.898C82.2741 10.7207 81.7794 10.632 81.0887 10.632H80.4867V12.872ZM80.4867 8.588H80.9907C81.8494 8.588 82.2787 8.24733 82.2787 7.566C82.2787 6.88467 81.8494 6.544 80.9907 6.544H80.4867V8.588ZM77.7427 4.444H81.8307C82.8014 4.444 83.5387 4.67733 84.0427 5.144C84.5467 5.61067 84.7987 6.28267 84.7987 7.16C84.7987 7.692 84.7007 8.13533 84.5047 8.49C84.3181 8.83533 84.0287 9.12933 83.6367 9.372C84.0287 9.44667 84.3601 9.56333 84.6307 9.722C84.9107 9.87133 85.1347 10.058 85.3027 10.282C85.4801 10.506 85.6061 10.758 85.6807 11.038C85.7554 11.318 85.7927 11.6167 85.7927 11.934C85.7927 12.4287 85.7041 12.8673 85.5267 13.25C85.3587 13.6327 85.1161 13.9547 84.7987 14.216C84.4907 14.4773 84.1127 14.6733 83.6647 14.804C83.2167 14.9347 82.7127 15 82.1527 15H77.7427V4.444Z" fill="white"/>
</g>
<defs>
<filter id="filter0_d_1_16" x="0.105988" y="4.1499" width="134.085" height="39.228" filterUnits="userSpaceOnUse" color-interpolation-filters="sRGB">
<feFlood flood-opacity="0" result="BackgroundImageFix"/>
<feColorMatrix in="SourceAlpha" type="matrix" values="0 0 0 0 0 0 0 0 0 0 0 0 0 0 0 0 0 0 127 0" result="hardAlpha"/>
<feOffset dy="4"/>
<feGaussianBlur stdDeviation="2"/>
<feComposite in2="hardAlpha" operator="out"/>
<feColorMatrix type="matrix" values="0 0 0 0 0 0 0 0 0 0 0 0 0 0 0 0 0 0 0.25 0"/>
<feBlend mode="normal" in2="BackgroundImageFix" result="effect1_dropShadow_1_16"/>
<feBlend mode="normal" in="SourceGraphic" in2="effect1_dropShadow_1_16" result="shape"/>
</filter>
</defs>
</svg>
